<?xml version="1.0" encoding="utf-8"?>
<svg xmlns="http://www.w3.org/2000/svg" viewBox="0 0 500 500">
  <g id="Layer_1" style="" transform="matrix(0.695755, 0, 0, 0.532654, 140.089325, 133.506165)">
    <path fill="none" opacity="1.000000" stroke="#000000" stroke-linecap="round" stroke-linejoin="round" stroke-width="4.000000" d="M 165.685 438.459 C 166.798 442.604 165.458 446.727 165.161 450.809 C 164.963 453.542 164.908 456.381 164.325 459.178 C 163.144 464.843 162.718 470.636 161.923 476.37 C 161.177 481.755 160.167 487.103 159.365 492.476 C 158.43 498.69 156.955 504.836 155.873 511.033 C 154.951 516.301 154.258 521.602 153.461 526.887 C 152.47 533.428 151.174 539.946 150.565 546.514 C 149.984 552.788 149.02 559.023 148.609 565.318 C 148.177 571.967 146.781 578.568 146.404 585.217 C 146.094 590.681 145.593 596.137 145.412 601.608 C 145.102 611.108 144.471 620.596 144.084 630.094 C 143.729 638.783 143.459 647.481 143.025 656.17 C 142.934 657.962 142.803 659.753 142.738 661.546 C 142.714 662.236 142.867 663.02 141.829 663.13 C 141.233 663.193 140.79 662.884 140.291 662.394 C 138.418 660.562 137.401 658.255 136.257 656.13 C 128.459 641.617 117.485 629.116 106.406 616.62 C 96.889 605.885 88.984 594.157 81.9 581.988 C 81.151 580.698 80.718 579.113 78.622 579.03" style="stroke-width: 4;"/>
    <path fill="none" opacity="1.000000" stroke="#000000" stroke-linecap="round" stroke-linejoin="round" stroke-width="4.000000" d="M 328.551 530.381 C 324.191 530.097 320.746 527.788 317.241 525.78 C 304.653 518.571 294.622 509.153 288.453 496.515 C 287.97 495.529 287.357 494.579 287.023 493.552 C 285.899 490.13 283.399 489.039 279.732 489.504 C 277.2 489.825 274.748 489.663 272.138 489.186 C 269.621 488.726 266.747 489.848 264.045 490.34 C 245.657 493.686 229.073 501.029 213.192 509.949 C 196.497 519.325 181.391 530.611 167.029 542.782 C 165.285 544.261 163.106 544.337 161.167 545.17 C 160.144 544.881 159.901 544.192 160.016 543.282 C 160.51 539.431 160.976 535.576 161.476 531.726 C 161.944 528.14 162.393 524.552 162.938 520.976 C 163.624 516.484 164.2 511.983 165.184 507.523 C 166.077 503.46 166.404 499.292 166.994 495.172 C 167.664 490.512 168.38 485.857 169.018 481.194 C 169.546 477.346 169.95 473.485 170.491 469.639 C 171.195 464.633 171.338 459.581 172.132 454.573 C 172.565 451.85 172.529 449.025 172.708 446.248 C 172.886 443.446 173.083 440.672 173.677 437.921" style="stroke-width: 4;"/>
    <path fill="none" opacity="1.000000" stroke="#000000" stroke-linecap="round" stroke-linejoin="round" stroke-width="4.000000" d="M 293.596 407.281 C 293.684 408.016 293.552 408.685 293.996 409.463 C 298.203 416.855 300.793 425.192 302.224 433.917 C 303.212 439.948 303.786 446.164 302.888 452.461 C 302.622 454.333 301.791 456.617 303.065 458.991 C 305.291 456.551 307.402 454.205 309.543 451.902 C 315.336 445.671 321.844 440.973 328.95 437.288 C 333.899 434.72 338.898 432.458 344.052 430.656 C 346.53 429.79 347.116 430.351 346.445 433.347 C 343.297 447.393 337.632 459.546 328.547 469.104 C 326.669 471.082 324.822 473.111 322.824 475.268 C 324.961 476.548 327.055 476.337 328.971 475.985 C 331.28 475.56 333.454 475.525 335.767 476.003 C 338.121 476.489 340.555 476.211 342.97 476.53 C 347.998 477.194 352.935 478.407 357.801 479.928 C 362.388 481.362 366.859 483.384 371.349 485.267 C 372.317 485.673 373.403 486.116 373.98 487.377" style="stroke-width: 4;"/>
    <path fill="none" opacity="1.000000" stroke="#000000" stroke-linecap="round" stroke-linejoin="round" stroke-width="4.000000" d="M 164.789 544.627 C 165.088 546.398 163.539 547.235 162.371 548.083 C 159.834 549.93 158.956 552.189 158.746 555.104 C 158.189 562.823 157.11 570.511 156.501 578.228 C 156.225 581.712 156.158 585.214 155.908 588.71 C 155.484 594.61 155.657 600.545 155.209 606.443 C 154.133 620.586 154.239 634.762 153.562 648.916 C 153.056 659.469 153.462 670.057 153.462 680.629 C 153.462 681.659 153.462 682.69 153.462 683.687 C 150.013 684.452 146.794 683.909 143.626 684.154 C 141.695 684.303 141.452 682.969 140.968 681.961 C 138.91 677.688 136.984 673.363 134.97 669.073 C 130.755 660.092 127.188 650.85 122.123 642.208 C 118.508 636.04 113.414 630.763 108.7 625.287 C 98.785 613.768 89.514 601.902 82.494 588.708 C 81.534 586.902 80.118 585.211 79.594 583.314 C 78.18 578.219 76.023 573.385 73.843 568.552 C 69.672 559.302 66.951 549.652 63.966 540.069 C 63.26 537.801 64.958 535.561 67.591 535.741 C 72.082 536.049 76.571 535.709 81 535.173 C 88.84 534.225 96.559 532.692 103.963 530.103 C 117.64 525.318 129.641 518.223 139.718 508.588 C 142.473 505.956 144.914 503.056 147.499 500.278" style="stroke-width: 4;"/>
    <path fill="none" opacity="1.000000" stroke="#000000" stroke-linecap="round" stroke-linejoin="round" stroke-width="4.000000" d="M 96.512 449.748 C 96.265 450.536 95.822 451.173 95.027 451.636 C 81.54 459.493 71.964 470.365 65.24 483.36 C 63.102 487.494 61.855 491.955 60.37 496.354 C 58.297 495.958 57.947 494.474 57.49 493.279 C 52.553 480.398 44.621 469.162 34.838 458.853 C 30.005 453.759 24.363 449.474 19.019 444.886 C 18.113 444.113 17.164 443.588 16.037 443.334 C 13.783 444.719 14.28 447.087 14.038 448.954 C 13.195 455.552 13.076 462.164 13.83 468.84 C 15.026 479.404 18.541 489.244 23.779 498.658 C 24.359 499.699 25.377 500.587 24.624 502.163 C 21.544 501.849 19.203 500.079 16.617 498.911 C 6.25 494.223 -4.594 490.797 -15.889 488.429 C -22.784 486.983 -29.764 485.952 -36.777 485.353 C -40.277 485.054 -43.923 484.462 -47.493 485.23 C -48.23 485.389 -48.742 485.023 -49.29 484.689" style="stroke-width: 4;"/>
    <path fill="none" opacity="1.000000" stroke="#000000" stroke-linecap="round" stroke-linejoin="round" stroke-width="4.000000" d="M 95.619 451.629 C 97.601 453.046 97.055 455.294 97.255 457.019 C 97.983 463.251 98.563 469.561 97.938 475.814 C 96.774 487.429 93.58 498.58 87.268 508.879 C 86.609 509.956 85.615 511.029 87.405 512.158 C 92.659 510 97.478 506.92 103.036 505.031 C 109.165 502.947 115.413 501.669 121.848 500.775 C 129.203 499.753 136.529 499.422 143.925 500.239 C 144.783 500.334 145.535 500.548 146.305 500.816" style="stroke-width: 4;"/>
    <path fill="none" opacity="1.000000" stroke="#000000" stroke-linecap="round" stroke-linejoin="round" stroke-width="4.000000" d="M 375.495 487.377 C 374.781 487.439 374.156 487.073 373.374 487.855 C 367.46 493.762 360.776 497.193 353.818 499.769 C 346.872 502.341 339.802 502.865 332.706 502.325 C 329.593 502.087 326.422 501.644 323.372 500.339 C 322.705 500.055 321.668 499.748 321.237 501.537 C 323.327 503.697 325.501 505.789 327.558 508.09 C 333.971 515.27 339.357 523.734 343.34 533.887 C 343.903 535.325 343.665 537.586 345.446 537.638" style="stroke-width: 4;"/>
    <path fill="none" opacity="1.000000" stroke="#000000" stroke-linecap="round" stroke-linejoin="round" stroke-width="3.000000" d="M 293.596 409.162 C 291.001 410.989 289.848 413.716 288.229 416.15 C 283.172 423.739 280.04 432.008 278.178 440.625 C 277.269 444.836 277.266 449.208 276.914 453.512 C 276.773 455.231 277.815 456.843 277.533 458.623 C 277.369 459.666 277.437 460.721 276.7 461.562 C 275.236 461.721 274.795 460.622 274.25 459.938 C 263.883 446.889 249.848 438.365 233.376 432.794 C 232.26 432.416 231.239 432.057 230.088 432.546" style="stroke-width: 3;"/>
    <path fill="none" opacity="1.000000" stroke="#000000" stroke-linecap="round" stroke-linejoin="round" stroke-width="5.000000" d="M 148.024 126.955 C 140.434 131.496 135.426 124.337 130.059 119.472 C 124.364 114.309 120.728 106.415 116.54 99.311 C 107.383 83.778 97.281 69.814 83.53 61.574 C 78.11 58.327 74.932 60.456 74.566 68.337 C 73.79 85.065 76.523 100.765 82.495 115.522 C 87.504 127.9 95.949 132.973 105.539 134.134 C 114.143 135.176 122.909 134.972 131.517 132.967 C 134.265 132.326 137.007 131.272 139.024 128.303" style="stroke-width: 5;"/>
    <path fill="none" opacity="1.000000" stroke="#000000" stroke-linecap="round" stroke-linejoin="round" stroke-width="5.000000" d="M 144.024 293.341 C 135.868 285.604 127.971 277.404 121.061 267.687 C 115.442 259.786 109.517 252.572 102.592 246.7 C 98.832 243.512 94.936 240.43 90.952 238.334 C 80.79 232.988 77.82 235.48 77.678 250.893 C 77.579 261.557 80.094 271.89 84.086 281.164 C 89.234 293.121 98.171 296.957 107.536 298.607 C 118.359 300.514 129.521 300.789 139.895 296.781 C 144.849 294.866 149.759 295.155 154.537 293.41 C 155.272 293.141 156.19 293.791 157.024 294.015" style="stroke-width: 5;"/>
    <path fill="none" opacity="1.000000" stroke="#000000" stroke-linecap="round" stroke-linejoin="round" stroke-width="5.000000" d="M 172.024 120.891 C 177.471 117.485 183.401 119.236 189 118.004 C 200.741 115.42 212.085 111.261 221.086 99.415 C 227.686 90.731 229.688 79.772 230.378 68.317 C 230.86 60.318 231.123 52.123 230.017 44.077 C 229.407 39.642 228.026 35.724 225.799 32.099 C 218.08 35.855 214.392 44.481 210.014 52.152 C 203.066 64.322 198.403 78.181 193.459 91.875 C 190.726 99.445 187.845 107.063 183.005 112.777 C 182.035 113.921 181.968 115.463 181.524 116.848" style="stroke-width: 5;"/>
    <path fill="none" opacity="1.000000" stroke="#000000" stroke-linecap="round" stroke-linejoin="round" stroke-width="4.000000" d="M 63.118 537.907 C 61.589 536.269 60.364 536.944 58.923 538.155 C 52.225 543.781 44.882 548.616 36.573 552.131 C 28.912 555.371 20.891 557.436 12.443 558.418 C 6.257 559.138 0.066 559.097 -6.046 558.739 C -13.033 558.33 -20.15 557.707 -26.605 554.8 C -27.854 554.238 -28.546 555.598 -29.613 555.109" style="stroke-width: 4;"/>
    <path fill="none" opacity="1.000000" stroke="#000000" stroke-linecap="round" stroke-linejoin="round" stroke-width="5.000000" d="M 156.024 23.187 C 160.29 21.81 163.51 17.822 168.494 17.294 C 178.396 16.245 186.928 9.116 193.99 -0.443 C 199.425 -7.8 201.564 -17.267 201.421 -27.347 C 201.29 -36.537 200.254 -45.658 197.561 -54.32 C 195.182 -61.975 193.93 -62.716 190.061 -56.948 C 181.759 -44.588 177.093 -29.525 173.616 -13.836 C 171.863 -5.926 169.712 1.662 167.052 9.055 C 166.205 11.408 165.69 13.978 165.024 16.449" style="stroke-width: 5;"/>
    <path fill="none" opacity="1.000000" stroke="#000000" stroke-linecap="round" stroke-linejoin="round" stroke-width="4.000000" d="M -48.101 485.495 C -46.289 490.393 -42.346 494.029 -38.798 497.819 C -28.014 509.356 -14.97 518.324 0.204 524.737 C 7.101 527.652 14.309 529.778 21.691 531.392 C 22.915 531.66 23.827 532.054 24.656 532.8 C 23.728 535.097 21.146 534.318 19.563 534.544 C 4.3 536.716 -9.174 542.42 -21.589 550.499 C -23.455 551.715 -25.634 552.516 -26.63 554.571" style="stroke-width: 4;"/>
    <path fill="none" opacity="1.000000" stroke="#000000" stroke-linecap="round" stroke-linejoin="round" stroke-width="5.000000" d="M 125.524 199.054 C 113.802 191.46 105.939 177.232 95.533 167.367 C 90.675 162.762 85.47 158.754 79.962 156.167 C 74.488 153.594 72.152 155.29 73.121 163.32 C 75.045 179.271 79.493 193.75 89.049 204.403 C 91.875 207.554 95.323 208.449 99.022 208.565 C 106.872 208.809 114.875 208.961 121.918 204.163 C 126.204 201.243 130.403 198.589 135.024 197.033" style="stroke-width: 5;"/>
    <path fill="none" opacity="1.000000" stroke="#000000" stroke-linecap="round" stroke-linejoin="round" stroke-width="3.000000" d="M 229.641 431.74 C 232.563 445.232 240.202 456.494 250.074 466.673 C 257.572 474.403 266.689 480.283 276.593 485.238 C 276.948 485.416 277.197 485.764 277.481 486.02 C 277.781 487.19 276.539 487.489 276.004 488.183" style="stroke-width: 3;"/>
    <path fill="none" opacity="1.000000" stroke="#000000" stroke-linecap="round" stroke-linejoin="round" stroke-width="5.000000" d="M 204.713 392.44 C 206.277 394.883 208.201 394.011 210.216 393.865 C 232.63 392.235 239.351 378.992 240.665 350.659 C 240.869 346.271 241.422 341.549 238.504 337.506 C 231.416 340.444 227.016 348.107 222.814 355.485 C 216.263 366.991 210.504 379.311 204.139 391.02 C 202.174 394.634 198.505 392.653 195.713 393.788" style="stroke-width: 5;"/>
    <path fill="none" opacity="1.000000" stroke="#000000" stroke-linecap="round" stroke-linejoin="round" stroke-width="5.000000" d="M 193.024 287.95 C 193.239 286.197 194.013 284.817 195.04 283.942 C 203.297 276.913 207.969 265.848 212.433 254.867 C 220.015 236.213 230.191 220.776 242.542 207.796 C 246.429 203.712 250.922 205.09 251.926 211.164 C 255.305 231.6 253.795 251.397 244.916 268.985 C 238.875 280.951 228.886 284.945 218.997 287.78 C 212.478 289.65 205.805 290.822 199.024 290.865 C 195.876 290.884 193.436 287.945 189.962 288.888 C 187.741 289.492 185.456 291.133 183.024 290.646" style="stroke-width: 5;"/>
    <path fill="none" opacity="1.000000" stroke="#000000" stroke-linecap="round" stroke-linejoin="round" stroke-width="5.000000" d="M 157.024 454.865 C 150.887 459.859 146.386 455.211 142.035 450.131 C 136.307 443.444 130.94 436.122 124.483 430.696 C 121.271 427.997 117.938 425.509 114.051 424.373 C 111.275 423.563 109.662 424.535 110.125 427.887 C 112.031 441.664 115.12 455.68 125.169 461.849 C 132.891 466.588 141.627 464.706 149.024 457.56" style="stroke-width: 5;"/>
    <path fill="none" opacity="1.000000" stroke="#000000" stroke-linecap="round" stroke-linejoin="round" stroke-width="5.000000" d="M 246.024 117.522 C 251.387 134.975 248.306 151.456 242.458 167.342 C 238.46 178.201 230.5 181.904 222.492 184.012 C 216.387 185.618 210.094 187.287 203.698 183.81 C 201.247 182.478 197.94 184.006 195.024 184.23" style="stroke-width: 5;"/>
    <path fill="none" opacity="1.000000" stroke="#000000" stroke-linecap="round" stroke-linejoin="round" stroke-width="5.000000" d="M 184.524 340.171 C 187.802 341.795 190.239 340.923 191.54 336.136 C 192.809 331.466 194.155 326.813 197.721 323.47 C 201.917 330.58 201.132 338.897 200.31 346.192 C 198.538 361.914 195.566 377.34 189.586 391.43 C 186.992 397.543 183.745 402.758 180.021 407.549 C 177.434 410.878 174.445 411.907 171.024 410.248" style="stroke-width: 5;"/>
    <path fill="none" opacity="1.000000" stroke="#000000" stroke-linecap="round" stroke-linejoin="round" stroke-width="5.000000" d="M 129.024 28.24 C 117.753 14.737 108.624 -2.148 94.539 -11.221 C 91.49 -13.185 88.491 -17.313 85.117 -14.354 C 81.835 -11.476 83.034 -6.221 83.524 -1.745 C 84.917 10.983 87.217 23.006 96.008 30.633 C 102.769 36.499 110.331 35.093 117.508 34.368 C 125.163 33.595 132.103 27.382 140.024 27.23" style="stroke-width: 5;"/>
    <path fill="none" opacity="1.000000" stroke="#000000" stroke-linecap="round" stroke-linejoin="round" stroke-width="5.000000" d="M 155.146 415.493 C 150.411 418.107 146.099 418.608 142.089 412.87 C 137.605 406.453 133.422 399.797 129.585 392.643 C 124.194 382.589 117.546 374.156 109.639 367.666 C 106.279 364.907 103.383 366.109 103.26 371.027 C 102.862 386.976 104.56 402.435 113.712 414.051 C 120.222 422.314 137.427 423.392 144.646 416.841" style="stroke-width: 5;"/>
    <path fill="none" opacity="1.000000" stroke="#000000" stroke-linecap="round" stroke-linejoin="round" stroke-width="5.000000" d="M 173.524 44.749 C 178.297 48.19 177.519 54.631 177.987 60.252 C 179.52 78.669 177.669 96.27 171.071 112.839 C 167.243 122.45 155.173 129.555 146.607 120.08 C 135.763 108.086 128.928 92.299 126.143 73.691 C 125.632 70.279 125.06 66.041 127.524 62.942" style="stroke-width: 5;"/>
    <path fill="none" opacity="1.000000" stroke="#000000" stroke-linecap="round" stroke-linejoin="round" stroke-width="5.000000" d="M 167.024 229.328 C 170.648 223.222 170.037 215.117 172.459 208.398 C 173.665 205.047 174.21 201.26 175.004 197.651 C 175.141 197.031 174.929 195.75 175.037 195.718 C 181.481 193.747 181.009 184.09 185.187 179.239 C 190.291 186.281 190.113 195.27 189.373 203.698 C 188.094 218.266 185.554 232.364 180.204 245.632 C 175.75 256.68 164.258 262.845 155.621 251.43 C 147.154 240.242 141.574 226.527 139.468 210.474 C 138.816 205.5 137.941 200.662 139.01 195.631 C 139.248 194.517 139.565 193.67 140.524 193.615" style="stroke-width: 5;"/>
    <path fill="none" opacity="1.000000" stroke="#000000" stroke-linecap="round" stroke-linejoin="round" stroke-width="5.000000" d="M 234.024 406.158 C 231.385 407.219 233.055 410.224 232.501 412.212 C 229.929 421.425 226.701 430.189 222.011 437.814 C 215.418 448.533 206.587 448.37 197.528 446.544 C 193.542 445.741 189.68 445.033 186.354 440.763 C 184.512 438.396 180.669 440.613 178.024 438.501" style="stroke-width: 5;"/>
    <path fill="none" opacity="1.000000" stroke="#000000" stroke-linecap="round" stroke-linejoin="round" stroke-width="5.000000" d="M 164.524 -125.05 C 177.152 -108.62 175.718 -83.82 160.965 -69.912 C 154.989 -64.279 148.357 -59.913 142.024 -54.967" style="stroke-width: 5;"/>
    <path fill="none" opacity="1.000000" stroke="#000000" stroke-linecap="round" stroke-linejoin="round" stroke-width="5.000000" d="M 245.524 119.543 C 243.958 119.383 242.822 120.103 241.464 121.457 C 230.791 132.109 223.163 146.198 216.598 161.38 C 213.125 169.41 207.937 175.429 204.024 182.883" style="stroke-width: 5;"/>
    <path fill="none" opacity="1.000000" stroke="#000000" stroke-linecap="round" stroke-linejoin="round" stroke-width="5.000000" d="M 233.024 400.527 C 230.777 395.553 227.605 398.022 225.059 399.307 C 219.212 402.26 213.85 406.409 208.968 411.892 C 201.853 419.882 194.357 427.256 187.024 434.892" style="stroke-width: 5;"/>
    <path fill="none" opacity="1.000000" stroke="#000000" stroke-linecap="round" stroke-linejoin="round" stroke-width="5.000000" d="M 164.024 -127.74 C 162.732 -122.48 159.334 -118.91 157.978 -113.62 C 155.116 -102.43 153.899 -90.814 152.548 -79.225 C 151.948 -74.077 150.705 -69.036 151.024 -63.727" style="stroke-width: 5;"/>
    <path fill="none" opacity="1.000000" stroke="#000000" stroke-linecap="round" stroke-linejoin="round" stroke-width="5.000000" d="M 107.524 -45.543 C 100.703 -59.697 93.621 -73.551 83.027 -83.281 C 81.207 -84.952 79.028 -87.297 77.116 -85.761 C 74.903 -83.982 74.46 -79.575 74.713 -76.57 C 75.127 -71.624 75.499 -66.624 76.361 -61.665 C 78.192 -51.126 83.768 -47.047 90.543 -44.984 C 96.45 -43.187 102.503 -42.549 108.532 -44.829 C 111.698 -46.023 114.838 -43.934 118.024 -44.195" style="stroke-width: 5;"/>
    <path fill="none" opacity="1.000000" stroke="#000000" stroke-linecap="round" stroke-linejoin="round" stroke-width="5.000000" d="M 144.524 326.021 C 144.158 328.033 145.226 330.185 143.577 332.166 C 140.825 335.474 140.393 340.477 140.633 344.877 C 141.762 365.583 144.32 385.709 154.973 402.223 C 158.296 407.375 161.632 411.828 167.022 412.305 C 169.67 412.539 171.223 411.55 171.034 407.553 C 170.822 403.064 170.569 398.57 170.546 394.077 C 170.466 378.693 175.808 365.251 180.93 352.599 C 184.814 343.006 183.357 336.119 180.503 328.056 C 180.152 327.061 179.525 326.244 179.023 325.347 C 172.963 314.505 169.509 314.296 164.143 325.451 C 162.028 329.848 159.878 334.383 158.424 339.446 C 157.212 343.665 157.305 347.028 158.956 351.003 C 162.996 360.731 166.69 370.718 170.524 380.6" style="stroke-width: 5;"/>
    <path fill="none" opacity="1.000000" stroke="#000000" stroke-linecap="round" stroke-linejoin="round" stroke-width="5.000000" d="M 151.524 -46.211 C 155.943 -38.899 154.884 -30.083 154.294 -21.989 C 153.795 -15.15 152.453 -8.135 150.051 -1.726 C 147.497 5.092 142.698 8.201 137.024 6.341 C 129.451 3.862 117.288 -15.261 116.564 -26.006 C 116.445 -27.769 116.857 -29.595 117.024 -31.393" style="stroke-width: 5;"/>
    <path fill="none" opacity="1.000000" stroke="#000000" stroke-linecap="round" stroke-linejoin="round" stroke-width="4.000000" d="M 102.186 -139.24 C 96.517 -136.53 91.531 -141.18 86.2 -142.09 C 81.96 -142.82 78.305 -141.51 75.686 -136.54 C 79.667 -129.45 89.322 -130.11 95.186 -137.89" style="stroke-width: 4;"/>
    <path fill="none" opacity="1.000000" stroke="#000000" stroke-linecap="round" stroke-linejoin="round" stroke-width="3.000000" d="M 140.524 71.028 C 144.19 76.869 147.707 82.896 151.561 88.502 C 156.581 95.805 159.149 104.293 159.558 114.15 C 159.661 116.639 160.19 119.095 160.524 121.565" style="stroke-width: 3;"/>
    <path fill="none" opacity="1.000000" stroke="#000000" stroke-linecap="round" stroke-linejoin="round" stroke-width="5.000000" d="M 129.024 -135.83 C 130.968 -125.66 134.554 -115.92 132.615 -104.8 C 131.842 -100.38 131.02 -95.882 129.4 -92.135 C 126.384 -85.141 118.8 -84.332 113.115 -90.828 C 107.984 -96.704 102.542 -102.78 102.89 -113.6 C 102.968 -116.02 101.357 -118.53 100.524 -121" style="stroke-width: 5;"/>
    <path fill="none" opacity="1.000000" stroke="#000000" stroke-linecap="round" stroke-linejoin="round" stroke-width="5.000000" d="M 157.524 95.96 C 160.051 89.413 159.548 81.812 161.509 75.064 C 161.622 74.674 161.41 74.098 161.541 73.736 C 163.166 69.253 164.314 63.755 163.235 59.713 C 161.632 53.708 157.654 49.064 153.951 44.865 C 151.589 42.186 148.568 42.24 146.556 46.128 C 143.942 51.179 142.586 57.002 141.522 62.942 C 141.199 64.743 140.976 66.596 140.498 68.321 C 139.601 71.556 137.556 73.135 135.605 70.9 C 132.436 67.271 128.881 64.003 126.774 58.899" style="stroke-width: 5;"/>
    <path fill="none" opacity="1.000000" stroke="#000000" stroke-linecap="round" stroke-linejoin="round" stroke-width="5.000000" d="M 175.524 184.904 C 173.024 180.187 170.764 175.19 167.962 170.827 C 164.534 165.489 160.464 166.045 158.09 172.149 C 155.788 178.063 154.233 184.42 152.821 190.889 C 152.165 193.89 153.389 195.072 154.111 196.263 C 158.616 203.702 161.766 212.404 166.457 219.684 C 168.763 223.266 168.005 228.341 168.471 232.756 C 168.946 237.256 168.764 241.884 170.024 246.222" style="stroke-width: 5;"/>
    <path fill="none" opacity="1.000000" stroke="#000000" stroke-linecap="round" stroke-linejoin="round" stroke-width="4.000000" d="M 176.524 258.976 C 175.699 273.435 175.267 287.868 178.024 302.101" style="stroke-width: 4;"/>
    <path fill="none" opacity="1.000000" stroke="#000000" stroke-linecap="round" stroke-linejoin="round" stroke-width="4.000000" d="M 165.024 263.019 C 165.836 275.598 167.019 288.169 165.067 300.765 C 164.907 301.796 164.595 303.204 165.524 304.122" style="stroke-width: 4;"/>
    <path fill="none" opacity="1.000000" stroke="#000000" stroke-linecap="round" stroke-linejoin="round" stroke-width="4.000000" d="M 167.524 126.955 C 167.355 140.2 168.877 153.17 171.024 166.037" style="stroke-width: 4;"/>
    <path fill="none" opacity="1.000000" stroke="#000000" stroke-linecap="round" stroke-linejoin="round" stroke-width="4.000000" d="M 156.024 129.651 C 159.559 140.471 159.341 151.899 159.024 163.342" style="stroke-width: 4;"/>
    <path fill="none" opacity="1.000000" stroke="#000000" stroke-linecap="round" stroke-linejoin="round" stroke-width="4.000000" d="M 327.929 529.91 C 328.049 530.562 328.093 531.695 328.296 530.579 C 333.459 534.388 338.538 538.019 344.072 536.432" style="stroke-width: 4;"/>
    <path fill="none" opacity="1.000000" stroke="#000000" stroke-linecap="round" stroke-linejoin="round" stroke-width="5.000000" d="M 128.153 -175.84 C 128.823 -167.64 125.427 -160.49 121.705 -153.4 C 119.942 -150.04 118.339 -146.61 116.665 -143.21" style="stroke-width: 5;"/>
    <path fill="none" opacity="1.000000" stroke="#000000" stroke-linecap="round" stroke-linejoin="round" stroke-width="3.000000" d="M 150.024 7.015 C 149.961 17.854 152.455 27.944 155.024 38.011" style="stroke-width: 3;"/>
    <path fill="none" opacity="1.000000" stroke="#000000" stroke-linecap="round" stroke-linejoin="round" stroke-width="3.000000" d="M 129.524 -84.615 C 130.404 -73.996 133.471 -64.374 137.024 -54.967" style="stroke-width: 3;"/>
    <path fill="none" opacity="1.000000" stroke="#000000" stroke-linecap="round" stroke-linejoin="round" stroke-width="5.000000" d="M 123.524 -122.35 C 122.69 -123.48 121.816 -124.55 121.031 -125.73 C 118.891 -128.95 116.61 -131.16 113.529 -127.74 C 111.162 -125.1 110.472 -116.64 112.556 -113.63 C 115.072 -110.02 117.403 -106.02 121.024 -104.16" style="stroke-width: 5;"/>
    <path fill="none" opacity="1.000000" stroke="#000000" stroke-linecap="round" stroke-linejoin="round" stroke-width="3.000000" d="M 140.024 12.406 C 144.394 20.971 144.029 31.057 145.024 40.706" style="stroke-width: 3;"/>
    <path fill="none" opacity="1.000000" stroke="#000000" stroke-linecap="round" stroke-linejoin="round" stroke-width="3.000000" d="M 121.024 -80.572 C 124.452 -71.664 126.814 -62.312 127.524 -52.272" style="stroke-width: 3;"/>
    <path fill="none" opacity="1.000000" stroke="#000000" stroke-linecap="round" stroke-linejoin="round" stroke-width="5.000000" d="M 88.797 -216.17 C 84.26 -217.18 80.572 -221.01 76.371 -223.18 C 74.387 -224.2 72.695 -224.3 70.797 -224.26" style="stroke-width: 5;"/>
    <path fill="none" opacity="1.000000" stroke="#000000" stroke-linecap="round" stroke-linejoin="round" stroke-width="5.000000" d="M 127.024 -30.719 C 127.857 -35.211 128.428 -39.83 129.588 -44.163 C 131.124 -49.9 133.66 -50.951 137.003 -47.532 C 140.922 -43.507 144.665 -39.596 142.156 -31.319 C 140.651 -26.353 140.956 -20.559 140.256 -15.166 C 139.739 -11.177 141.362 -6.688 142.021 -2.417 C 142.367 -0.175 142.69 2.075 143.024 4.32" style="stroke-width: 5;"/>
    <path fill="none" opacity="1.000000" stroke="#000000" stroke-linecap="round" stroke-linejoin="round" stroke-width="4.000000" d="M 84.524 -192.43 C 82.38 -197.87 78.185 -199.49 74.464 -201.69 C 73.086 -202.49 70.698 -202.91 69.51 -199.85 C 68.247 -196.6 69.923 -195.43 71.482 -193.71 C 74.042 -190.88 77.444 -190.01 79.968 -190.76 C 84.256 -192.02 88.022 -189.91 92.024 -189.73" style="stroke-width: 4;"/>
    <path fill="none" opacity="1.000000" stroke="#000000" stroke-linecap="round" stroke-linejoin="round" stroke-width="5.000000" d="M 97.229 -213.23 C 100.001 -206.01 102.178 -198.53 102.729 -190.32" style="stroke-width: 5;"/>
    <path fill="none" opacity="1.000000" stroke="#000000" stroke-linecap="round" stroke-linejoin="round" stroke-width="7.000000" d="M 81.154 -172.53 C 86.538 -169.42 91.847 -166.01 97.654 -164.45" style="stroke-width: 7;"/>
    <path fill="none" opacity="1.000000" stroke="#000000" stroke-linecap="round" stroke-linejoin="round" stroke-width="6.000000" d="M 120.701 -201.75 C 119.932 -191.9 116.712 -183.26 113.201 -174.8" style="stroke-width: 6;"/>
    <path fill="none" opacity="1.000000" stroke="#000000" stroke-linecap="round" stroke-linejoin="round" stroke-width="5.000000" d="M 173.024 39.359 C 172.922 41.389 173.912 43.64 172.514 45.409 C 170.329 48.173 170.243 51.979 169.452 55.502 C 168.785 58.472 167.47 61.139 164.524 60.247" style="stroke-width: 5;"/>
    <path fill="none" opacity="1.000000" stroke="#000000" stroke-linecap="round" stroke-linejoin="round" stroke-width="3.000000" d="M 127.524 -29.371 C 131.839 -24.893 134.634 -18.18 139.524 -14.547" style="stroke-width: 3;"/>
    <path fill="none" opacity="1.000000" stroke="#000000" stroke-linecap="round" stroke-linejoin="round" stroke-width="3.000000" d="M 129.024 -125.72 C 127.611 -122.65 123.555 -124.38 123.014 -119.65 C 121.981 -110.63 120.637 -101.57 123.583 -92.742 C 124.034 -91.394 125.075 -90.383 125.024 -88.658" style="stroke-width: 3;"/>
    <path fill="none" opacity="1.000000" stroke="#000000" stroke-linecap="round" stroke-linejoin="round" stroke-width="5.000000" d="M 145.024 339.593 C 147.751 342.078 149.129 345.893 150.529 349.698 C 151.846 353.278 153.967 353.749 156.524 352.396" style="stroke-width: 5;"/>
    <path fill="none" opacity="1.000000" stroke="#000000" stroke-linecap="round" stroke-linejoin="round" stroke-width="5.000000" d="M 140.024 188.898 C 140.939 196.084 147.063 202.962 152.024 202.375" style="stroke-width: 5;"/>
    <path fill="none" opacity="1.000000" stroke="#000000" stroke-linecap="round" stroke-linejoin="round" stroke-width="5.000000" d="M 84.869 -241.56 C 86.487 -236.88 87.457 -231.63 91.119 -228.76" style="stroke-width: 5;"/>
    <path fill="none" opacity="1.000000" stroke="#000000" stroke-linecap="round" stroke-linejoin="round" stroke-width="3.000000" d="M 110.024 -114.94 C 108.006 -112.11 105.684 -114.6 103.524 -114.26" style="stroke-width: 3;"/>
    <path fill="none" opacity="1.000000" stroke="#000000" stroke-linecap="round" stroke-linejoin="round" stroke-width="3.000000" d="M 115.524 -38.805 C 117.001 -30.86 120.761 -27.723 126.024 -30.045" style="stroke-width: 3;"/>
    <path fill="none" opacity="1.000000" stroke="#000000" stroke-linecap="round" stroke-linejoin="round" stroke-width="4.000000" d="M 114.492 -230.08 C 113.723 -220.23 110.503 -211.6 106.992 -203.13" style="stroke-width: 4;"/>
    <path fill="none" opacity="1.000000" stroke="#000000" stroke-linecap="round" stroke-linejoin="round" stroke-width="4.000000" d="M 107.082 -245.16 C 105.771 -235.03 103.389 -229.39 101.193 -222.96" style="stroke-width: 4;"/>
    <path fill="none" opacity="1.000000" stroke="#000000" stroke-linecap="round" stroke-linejoin="round" stroke-width="5.000000" d="M 105.784 -173.03 C 107.207 -164.57 108.324 -155.81 108.607 -146.19" style="stroke-width: 5;"/>
  </g>
</svg>