<svg viewBox='0 0 24 24' width='20' height='20' fill='currentColor'>
    <!-- Sun (Top-Left): Unchanged -->
    <path d="M7 3a4 4 0 1 0 0 8 4 4 0 0 0 0-8zM7 0h1v2.5H7zM7 11.5h1V14H7zM0 7h2.5v1H0zM11.5 7H14v1h-2.5zM2.05 2.05l1.768 1.768.707-.707L2.757 1.343zM10.243 10.243l1.768 1.768.707-.707-1.768-1.768zM2.05 12.95L1.343 12.243l1.768-1.768.707.707zM12.95 2.05l-1.768 1.768-.707-.707 1.768-1.768z" />
    
    <!-- Moon (Bottom-Right): Rotated ~30 degrees CCW to 'hug' the sun -->
    <g transform="rotate(-30, 16, 16)">
        <path d="M23 16c0 3.866-3.134 7-7 7-3.866 0-7-3.134-7-7 0-.46.04-.92.1-1.36 1.1 3.2 4.1 5.5 7.4 5.5 1.9 0 3.6-.6 5-1.7 1-.9 1.5-2.1 1.5-3.44 0-1.8-1.1-3.3-2.6-3.9 1.6 1.5 2.6 3.6 2.6 5.9z" />
    </g>
</svg>
